<?xml version="1.0" encoding="utf-8"?>
<!-- Generator: Adobe Illustrator 27.9.0, SVG Export Plug-In . SVG Version: 6.00 Build 0)  -->
<svg version="1.1" id="Layer_1" xmlns="http://www.w3.org/2000/svg" xmlns:xlink="http://www.w3.org/1999/xlink" x="0px" y="0px"
	 viewBox="0 0 512 512" style="enable-background:new 0 0 512 512;" xml:space="preserve">
<path d="M486.2,171.3c0-106.5-70.5-138.1-70.5-138.1c-60.4-31.6-247.4-34.5-319.4,0c0,0-70.5,31.6-70.5,138.1v84.9
	c2.9,103.6,20.1,208.6,116.5,233c47.5,12.9,128,25.9,201.4-8.6l-2.9-38.8c0,0-38.8,10.1-83.4,10.1C151,454.7,161,395.7,156.7,377
	c0,0,73.4,24.5,197.1,8.6c60.4-8.6,115.1-46,122.3-80.6C487.6,250.4,486.2,171.3,486.2,171.3z M402.7,309.4h-50.3V182.8
	c0-25.9-11.5-38.8-33.1-38.8c-25.9,0-38.8,15.8-38.8,47.5v67.6h-48.9v-67.6c0-31.6-12.9-47.5-38.8-47.5c-21.6,0-33.1,12.9-33.1,38.8
	v126.6h-50.3V178.5c0-25.9,7.2-86.3,74.8-86.3c56.1,0,71.9,53.2,71.9,53.2s14.4-53.2,71.9-53.2c64.7,0,74.8,60.4,74.8,86.3V309.4z"
	/>
</svg>
